<?xml version="1.0" encoding="utf-8"?>
<!-- Generator: Adobe Illustrator 22.0.1, SVG Export Plug-In . SVG Version: 6.00 Build 0)  -->
<svg version="1.1" id="Layer_1" xmlns="http://www.w3.org/2000/svg" xmlns:xlink="http://www.w3.org/1999/xlink" x="0px" y="0px"
	 viewBox="0 0 512 512" style="enable-background:new 0 0 512 512;" xml:space="preserve">
<path fill="#161616" class="st0" d="M0,256.2C0,114.8,115.4-0.2,257,0c140.9,0.2,255.7,115.4,255.7,256.5C512.7,398,397.3,513,255.7,512.7
	C114.8,512.5-0.1,397.3,0,256.2z M278.5,413.6c0-49.7,0-98.3,0-148.3c14.1,0,27.6,0,41.6,0c1.8-18,3.4-34.7,5.2-52.7
	c-16.4,0-31.2,0-46.9,0c0-10.4-0.1-19.7,0-28.9c0.2-11.7,4.1-15.6,15.6-15.8c9.9-0.1,19.8,0,29.8,0c0-17.7,0-34.2,0-51.4
	c-14.8,0-28.8,0-42.7,0c-41.6,0.2-64.3,22.9-64.5,64.5c-0.1,10.2,0,20.5,0,32c-10.2,0-19.3,0-28.5,0c0,18,0,34.8,0,52.5
	c9.7,0,18.6,0,28.5,0c0,49.8,0,98.6,0,148.1C237.5,413.6,257.3,413.6,278.5,413.6z"/>
</svg>
