<?xml version="1.0" encoding="utf-8"?>
<!-- Generator: Adobe Illustrator 22.0.1, SVG Export Plug-In . SVG Version: 6.00 Build 0)  -->
<svg version="1.1" id="Layer_1" xmlns="http://www.w3.org/2000/svg" xmlns:xlink="http://www.w3.org/1999/xlink" x="0px" y="0px"
	 viewBox="0 0 512 512" style="enable-background:new 0 0 512 512;" xml:space="preserve">
<path fill="#161616" class="st0" d="M256,0C114.5,0-0.2,114.7-0.2,256.2c0,141.5,114.7,256.2,256.2,256.2s256.2-114.7,256.2-256.2
	C512.2,114.7,397.5,0,256,0z M390.1,223.2c-1.1,13.9-3.5,27.4-9.6,40.1c-10.6,22-28.9,34.3-51.7,40.6c-9.3,2.5-18.8,4-28.3,6
	c0-0.1-0.1,0.3,0,0.4c9.7,10.2,12.4,22.7,12.4,36.2c0,16.8-0.1,33.6-0.2,50.4c0,4.9,0.3,9.4,5.7,11.8c-37,0-73.9,0-111.9,0
	c8-1.9,8.1-7.4,8-13.3c-0.2-9.5-0.1-19.1-0.1-28.8c-5.9,0.6-11.2,1.5-16.5,1.8c-14.4,0.7-27.8-2-39.1-11.7
	c-5.2-4.5-9.1-9.9-11.7-16.3c-5-12.4-12-23.3-23.9-30.3c-1.5-0.9-2.9-2-3.9-3.3c-1-1.3-2.3-3.2-1.9-4.3c0.4-1.2,2.6-2.4,4.1-2.5
	c4,0,8.1-0.1,11.9,1c10.5,3,17.9,10.2,23.6,19.3c5.9,9.5,13.6,16.7,24.7,19.5c10.7,2.7,21.2,1,31.2-3.2c1-0.4,2-1.8,2.2-2.9
	c1.6-8.9,5.1-16.8,11.9-23.8c-7.3-1.3-13.9-2.3-20.4-3.7c-15.1-3.2-29.3-8.8-41.4-18.8c-15.9-13.2-23.7-30.8-26.9-50.8
	c-2.1-13.2-2.8-26.5-0.3-39.8c2.5-12.8,8.1-24.1,16.6-33.9c1.6-1.9,2.1-3.3,1.2-5.8c-5.2-15.8-3.6-31.4,2.2-46.7
	c0.4-1.1,2.6-2.5,3.8-2.3c5.2,0.5,10.5,1.1,15.5,2.5c12.1,3.4,22.9,9.7,33.6,16.3c1.4,0.9,3.7,1.3,5.3,0.9c31-7.5,62.1-7.8,93.1,0
	c2.9,0.7,5,0.2,7.5-1.4c11.8-7.6,23.9-14.6,37.9-17.2c15.2-2.8,12.9-2.4,16.4,10.1c3.6,13,3.5,26.1-0.6,39.1c-0.3,1,0,2.7,0.7,3.5
	C387,179.4,392,200.1,390.1,223.2z"/>
</svg>
