<?xml version="1.0" encoding="utf-8"?>
<!-- Generator: Adobe Illustrator 22.0.1, SVG Export Plug-In . SVG Version: 6.00 Build 0)  -->
<svg version="1.1" id="Layer_1" xmlns="http://www.w3.org/2000/svg" xmlns:xlink="http://www.w3.org/1999/xlink" x="0px" y="0px"
	 viewBox="0 0 512 512" style="enable-background:new 0 0 512 512;" xml:space="preserve">
<g>
	<g>
		<g>
			<path fill="#161616" class="st0" d="M512,256c0,141.3-115.1,256.2-256.5,256C114.8,511.9,0,396.8,0,256C0,114.8,115.1-0.1,256.5,0
				C397.2,0.1,512,115.1,512,256z M255,401.7c29,0,58,0.1,87,0c35.7-0.1,59.6-23.9,59.7-59.6c0.1-57.3,0.1-114.6,0-172
				c-0.1-35.7-23.8-59.6-59.6-59.7c-57.3-0.2-114.6-0.2-172,0c-35.8,0.1-59.6,23.9-59.6,59.6c-0.1,57.3-0.1,114.6,0,172
				c0.1,35.8,23.9,59.5,59.6,59.7C198.3,401.7,226.7,401.7,255,401.7z"/>
			<path fill="#161616" class="st0" d="M330.6,226.5c14.2,0,27.7,0,42,0c0.2,3.3,0.6,6.2,0.6,9.1c0,35.3,0.1,70.7,0,106
				c-0.1,20.7-10.9,31.7-31.5,31.7c-57.3,0.1-114.6,0.1-172,0c-19.2-0.1-30.9-10.7-31.1-29c-0.4-37.7-0.1-75.3-0.1-113
				c0-1.3,0.4-2.6,0.7-4.5c14,0,27.8,0,41.9,0c-11.6,39.7-2.4,72.8,32.4,96.3c26.6,18,62.2,16.5,88.4-2.3
				C331.2,300.1,340.8,268.9,330.6,226.5z"/>
			<path fill="#161616" class="st0" d="M307.3,255.6c0.2,28.2-23.2,51.8-51.4,51.7c-27.9-0.1-50.8-22.9-51.2-50.9c-0.3-28,23.3-51.8,51.4-51.7
				C283.9,204.8,307.1,227.8,307.3,255.6z"/>
			<path fill="#161616" class="st0" d="M319.1,192.9c0-16.2,0-32,0-48.3c16.2,0,32,0,48.3,0c0,16.1,0,31.9,0,48.3
				C351.2,192.9,335.5,192.9,319.1,192.9z"/>
		</g>
	</g>
</g>
</svg>
