<?xml version="1.0" encoding="utf-8"?>
<!-- Generator: Adobe Illustrator 22.0.1, SVG Export Plug-In . SVG Version: 6.00 Build 0)  -->
<svg version="1.1" id="Layer_1" xmlns="http://www.w3.org/2000/svg" xmlns:xlink="http://www.w3.org/1999/xlink" x="0px" y="0px"
	 viewBox="0 0 512 512" style="enable-background:new 0 0 512 512;" xml:space="preserve">
<style type="text/css">
	.st0{fill:url(#SVGID_1_);stroke:#FFFFFF;stroke-width:11.3386;stroke-miterlimit:10;}
	.st1{fill:#FFFFFF;stroke:#FFFFFF;stroke-width:5.6693;stroke-miterlimit:10;}
</style>
<g>
	<linearGradient id="SVGID_1_" gradientUnits="userSpaceOnUse" x1="93.1092" y1="372.4351" x2="452.4555" y2="115.5727">
		<stop  offset="0" style="stop-color:#161616"/>
		<stop  offset="1" style="stop-color:#161616"/>
	</linearGradient>
	<path class="st0" d="M477,477H81.7C55.9,477,35,456.1,35,430.3V35h395.3c25.8,0,46.7,20.9,46.7,46.7V477z"/>
	<g>
		<g>
			<g>
				<path class="st1" d="M137,264.8h61.6v18.7h-23H114V107.5h23V264.8z"/>
			</g>
			<g>
				<path class="st1" d="M370.7,269.5c8.4,4.5,15.1,11.1,19.9,20.1c4.9,8.9,7.3,19.8,7.3,32.6v81.5h-22.7v-78.3
					c0-13.8-3.4-24.4-10.2-31.7c-6.8-7.3-16-11-27.6-11c-12,0-21.5,3.8-28.5,11.5c-7.1,7.7-10.6,18.7-10.6,33.2v76.2h-22.7v-78.3
					c0-13.8-3.4-24.4-10.2-31.7c-6.8-7.3-16-11-27.6-11c-11.9,0-21.5,3.8-28.5,11.5c-7.1,7.7-10.6,18.7-10.6,33.2v76.2h-23V283.5
					v-18.2h23v19.9c4.5-7.2,10.6-12.8,18.3-16.7c7.7-3.9,16.1-5.8,25.4-5.8c11.6,0,21.9,2.6,30.8,7.8c8.9,5.2,15.6,12.9,19.9,23
					c3.9-9.8,10.3-17.3,19.2-22.7c8.9-5.4,18.8-8.1,29.8-8.1C352.7,262.8,362.3,265,370.7,269.5z"/>
			</g>
		</g>
		<circle class="st1" cx="426" cy="393" r="11"/>
	</g>
</g>
</svg>
