<?xml version="1.0" encoding="utf-8"?>
<!-- Generator: Adobe Illustrator 22.0.1, SVG Export Plug-In . SVG Version: 6.00 Build 0)  -->
<svg version="1.1" id="Layer_1" xmlns="http://www.w3.org/2000/svg" xmlns:xlink="http://www.w3.org/1999/xlink" x="0px" y="0px"
	 viewBox="0 0 512 512" style="enable-background:new 0 0 512 512;" xml:space="preserve">
<g>
	<g>
		<path fill="#161616" class="st0" d="M256.6,512C115.3,512.2,0,397.3,0,256.1C0,115.2,114.7,0.2,255.4,0C396.8-0.2,511.9,114.6,512,255.8
			C512,396.7,397.3,511.8,256.6,512z M391.8,254.4c0-37.3,0-74.6,0-112c0-19.1-6.8-25.9-25.8-25.9c-74,0-147.9,0-221.9,0
			c-18.4,0-25.6,7.1-25.6,25.2c0,74.6,0,149.3,0,223.9c0,19,6.9,25.9,25.9,25.9c74,0,147.9,0,221.9,0c18.5,0,25.5-6.9,25.5-25.2
			C391.8,329,391.8,291.7,391.8,254.4z"/>
		<path fill="#161616" class="st0" d="M265.2,346.1c-13.8,0-26.7,0-40.3,0c0-40.9,0-81.6,0-123c13.2,0,26.3,0,40.1,0c0.4,4.4,0.7,8.6,1.1,13.9
			c1.9-1.6,3.3-2.5,4.5-3.8c23.9-24.4,64.3-15.6,75.5,16.6c1.7,5,3.4,10.3,3.4,15.5c0.3,26.6,0.2,53.1,0.2,80.5
			c-13.4,0-26.5,0-40.9,0c0-15.4,0.1-30.6,0-45.8c-0.1-9.3,0.2-18.7-0.7-27.9c-1.3-13.1-9.1-20.2-20.6-19.9
			c-11.7,0.3-21.4,9.5-21.6,21.9c-0.5,22-0.2,43.9-0.2,65.9C265.6,341.6,265.4,343.2,265.2,346.1z"/>
		<path fill="#161616" class="st0" d="M200.7,346c-13.4,0-26.5,0-40.1,0c0-41,0-81.5,0-122.8c13.1,0,26.2,0,40.1,0
			C200.7,263.9,200.7,304.6,200.7,346z"/>
		<path fill="#161616" class="st0" d="M180.9,162.6c13.1-0.1,22.8,8.8,23.1,21.1c0.3,12.5-9.6,21.9-23.2,22c-13.1,0.1-22.8-8.8-23-21.1
			C157.5,171.9,167.2,162.7,180.9,162.6z"/>
	</g>
</g>
</svg>
