<?xml version="1.0" encoding="utf-8"?>
<!-- Generator: Adobe Illustrator 22.0.1, SVG Export Plug-In . SVG Version: 6.00 Build 0)  -->
<svg version="1.1" id="Layer_1" xmlns="http://www.w3.org/2000/svg" xmlns:xlink="http://www.w3.org/1999/xlink" x="0px" y="0px"
	 viewBox="0 0 512 512" style="enable-background:new 0 0 512 512;" xml:space="preserve">
<style type="text/css">
	.st0{fill:#FFFFFF;}
</style>
<g>
	<g>
		<path class="st0" d="M200.6,36.2v167.1H33.5V36.2H200.6 M201.6,9H32.5C18.1,9,6.4,20.7,6.4,35.2v169.1c0,14.5,11.7,26.2,26.2,26.2
			h169.1c14.5,0,26.2-11.7,26.2-26.2V35.2C227.8,20.7,216.1,9,201.6,9L201.6,9z"/>
	</g>
	<g>
		<path class="st0" d="M200.6,310.2v167.1H33.5V310.2H200.6 M201.6,283H32.5c-14.5,0-26.2,11.7-26.2,26.2v169.1
			c0,14.5,11.7,26.2,26.2,26.2h169.1c14.5,0,26.2-11.7,26.2-26.2V309.2C227.8,294.7,216.1,283,201.6,283L201.6,283z"/>
	</g>
	<g>
		<path class="st0" d="M478.8,36.2v167.1H311.7V36.2H478.8 M479.8,9H310.7c-14.5,0-26.2,11.7-26.2,26.2v169.1
			c0,14.5,11.7,26.2,26.2,26.2h169.1c14.5,0,26.2-11.7,26.2-26.2V35.2C506,20.7,494.2,9,479.8,9L479.8,9z"/>
	</g>
	<g>
		<path class="st0" d="M478.8,309.2v167.1H311.7V309.2H478.8 M479.8,282H310.7c-14.5,0-26.2,11.7-26.2,26.2v169.1
			c0,14.5,11.7,26.2,26.2,26.2h169.1c14.5,0,26.2-11.7,26.2-26.2V308.2C506,293.7,494.2,282,479.8,282L479.8,282z"/>
	</g>
</g>
</svg>
