<?xml version="1.0" encoding="utf-8"?>
<!-- Generator: Adobe Illustrator 22.0.1, SVG Export Plug-In . SVG Version: 6.00 Build 0)  -->
<svg version="1.1" id="Layer_1" xmlns="http://www.w3.org/2000/svg" xmlns:xlink="http://www.w3.org/1999/xlink" x="0px" y="0px"
	 viewBox="0 0 512 512" style="enable-background:new 0 0 512 512;" xml:space="preserve">
<g>
	<g>
		<path d="M486,389.1c-7.3,15.9-16,30.9-27.8,44c-17.6,19.6-38.6,34.1-63.3,43.1c-8,2.9-15.5-0.5-18.3-8c-2.6-7.1,0.9-14.7,8.6-17.7
			c34.3-13.1,59-36.3,74.2-69.8c2.5-5.5,6.8-8.7,12.9-8.7c7.4,0,11.3,4.5,13.7,10.8C486,384.9,486,387,486,389.1z"/>
		<path d="M371,53.7c35.3-18.6,73.6,11.6,67.6,48.2c1,0.3,2.1,0.7,3.2,1c33.3,9.8,44.1,50,20.2,75c-5.9,6.1-12,12-18.4,18.3
			c1,0.6,1.6,1.2,2.3,1.5c28.2,14.7,34,49.8,11.5,72.5c-28.9,29.2-58.2,58.1-87.3,87.1c-20.3,20.2-40,41.3-61.3,60.3
			c-35,31.2-76.7,44.8-123.5,41.5c-77.6-5.5-140.6-61.4-155.3-137.8c-7.1-37.3-2.4-73.3,14.7-107.2C63.9,176.2,80.4,137.3,91,96.1
			c1.8-7.1,3.4-14.2,5.1-21.3c6.4-27.5,32.4-44.1,59.3-37.8c26.7,6.2,42.7,32.8,36.1,60.4c-4.4,18.6-9,37.1-13.5,55.7
			c-0.2,1-0.4,2-0.6,3c0.6,0.5,1.1,1,1.7,1.5c0.8-1.5,1.2-3.2,2.3-4.3c37.6-37.7,75.7-74.8,112.6-113.1
			c23.6-24.4,62.8-18.4,76.1,12.6C370.4,53,370.7,53.4,371,53.7z M53.8,289.5c1.2,9.8,1.9,19.6,3.8,29.2
			c12.3,63.5,70.7,112.3,135.2,113.4c41.6,0.7,77.1-13.6,106.5-43c29.3-29.2,58.6-58.5,87.9-87.7c16.9-16.9,33.9-33.7,50.8-50.6
			c5.2-5.2,6.9-11.5,4.5-18.5c-2.3-6.7-7.3-10.4-14.3-11.3c-6.1-0.8-11,1.7-15.2,6c-18.8,18.8-37.7,37.6-56.5,56.3
			c-4.9,4.8-9.7,9.8-14.7,14.5c-4,3.8-8.9,4.7-14.1,3c-5.1-1.7-8.1-5.6-9-10.8c-0.9-5.5,1.6-9.7,5.5-13.5
			c39-38.8,78-77.6,116.9-116.4c8.1-8.1,8.6-18.4,1.2-25.8c-7.4-7.5-18-7.2-26.2,1c-8.2,8.1-16.3,16.2-24.5,24.4
			c-26.8,26.7-53.6,53.3-80.3,80.1c-4.2,4.2-9,6.4-14.9,4.8c-10.6-3-13.2-15.6-4.9-23.9c22.1-22.1,44.2-44.1,66.4-66.1
			c16-15.9,32-31.8,47.9-47.8c8.7-8.8,7.3-21.6-2.9-28c-7.2-4.6-15.8-3.2-22.7,3.7c-37.4,37.4-74.8,74.8-112.2,112.2
			c-1.3,1.3-2.5,2.6-4,3.6c-8.2,5.9-19.8,1.2-21.5-8.8c-0.9-5.3,1.2-9.5,4.9-13.3c18.4-18.3,36.8-36.7,55.2-55.1
			c12.8-12.8,25.7-25.5,38.3-38.4c9.3-9.5,6-24.5-6.2-28.9c-7.8-2.8-14.2-0.3-19.9,5.4C264.6,108.9,214.5,159,164.4,209
			c-1.4,1.4-2.7,2.8-4.3,3.9c-6.3,4.7-14.3,3.5-19-2.7c-3.4-4.5-3.1-9.3-1.9-14.5c8.5-34.8,16.9-69.6,25.4-104.4
			c3.2-13.1-3.3-24.7-15.3-27.6c-12-2.9-23.5,4.3-26.3,16.9c-10.9,50.4-29,98-52.8,143.6C59.6,244.6,54.5,266.4,53.8,289.5z"/>
		<path d="M442.2,361.4c-0.3,0.9-0.6,3.1-1.5,5.1c-14.5,31.6-37.9,53.4-70.7,65c-8,2.8-15.7-0.7-18.3-8c-2.6-7.4,1.1-15,9.1-17.8
			c25.5-9.1,43.7-26.1,55-50.7c3.1-6.7,9.1-9.8,15.6-8.4C437.9,348,442.2,353.3,442.2,361.4z"/>
	</g>
</g>
</svg>
